<?xml version="1.0" encoding="UTF-8" standalone="no"?>
<svg
    xmlns="http://www.w3.org/2000/svg"
    viewBox="0 0 47 60"
    version="1.1"
    width="47"
    height="60">
  <path
      d="M 24.003984,0.55084743 H 23.767883 L 0.51186438,3.0299152 V 45.764322 L 23.767883,59.576271 47.023899,45.764322 V 3.0299152 Z M 44.072627,43.993559 23.767883,56.034745 3.4631358,43.993559 V 26.522033 L 23.649831,38.563219 v 2.124916 L 9.8378826,32.424576 v 2.124915 l 13.9300004,8.38161 v 2.242966 L 9.8378826,36.910508 v 2.124915 l 13.9300004,8.263559 14.048049,-8.38161 v -8.971864 l 6.256695,-3.777627 z m -0.11805,-20.068644 -5.548391,3.305423 -2.597118,1.534661 -12.159237,-7.201101 v 2.124915 l 10.388474,6.256695 h -0.118051 l -0.236101,0.118051 -1.534661,0.826356 -8.617712,-5.076187 v 2.124915 l 6.84695,4.013729 -1.652712,1.062459 -5.076187,-3.069323 v 2.124915 l 3.423474,2.006865 -3.423474,2.006864 L 3.581186,24.161016 23.649831,12.11983 Z M 44.072627,21.799999 23.649831,9.758813 3.4631358,21.799999 V 5.7450847 L 23.767883,3.6201694 44.072627,5.7450847 Z"/>
</svg>
